<svg width="682" height="732" viewBox="0 0 682 732" fill="none" xmlns="http://www.w3.org/2000/svg"><path d="M433 370.5c0 50.534-40.966 91.5-91.5 91.5S250 421.034 250 370.5s40.966-91.5 91.5-91.5 91.5 40.966 91.5 91.5Z" fill="#fff"/><path d="M682 341a341 341 0 0 0-682 0h192.071c14.115-69.052 75.205-121 148.429-121s134.314 51.948 148.429 121H682Z" fill="#EE1B24"/><path d="M0 391a340.999 340.999 0 0 0 341 341 340.999 340.999 0 0 0 241.123-99.877A340.999 340.999 0 0 0 682 391H489.929c-14.115 69.052-75.205 121-148.429 121s-134.314-51.948-148.429-121H0Z" fill="#fff"/></svg>